<svg width="272" height="272" viewBox="0 0 272 272" fill="none" xmlns="http://www.w3.org/2000/svg">
<rect x="0.5" y="0.5" width="271" height="271" rx="39.5" fill="#D9D9D9" stroke="black"/>
<path d="M63.3651 52.8182C63.1605 51.0909 62.331 49.75 60.8764 48.7955C59.4219 47.8409 57.6378 47.3636 55.5241 47.3636C53.9787 47.3636 52.6264 47.6136 51.4673 48.1136C50.3196 48.6136 49.4219 49.3011 48.7741 50.1761C48.1378 51.0511 47.8196 52.0455 47.8196 53.1591C47.8196 54.0909 48.0412 54.892 48.4844 55.5625C48.9389 56.2216 49.5185 56.7727 50.223 57.2159C50.9276 57.6477 51.6662 58.0057 52.4389 58.2898C53.2116 58.5625 53.9219 58.7841 54.5696 58.9545L58.1151 59.9091C59.0241 60.1477 60.0355 60.4773 61.1491 60.8977C62.2741 61.3182 63.348 61.892 64.3707 62.6193C65.4048 63.3352 66.2571 64.2557 66.9276 65.3807C67.598 66.5057 67.9332 67.8864 67.9332 69.5227C67.9332 71.4091 67.4389 73.1136 66.4503 74.6364C65.473 76.1591 64.0412 77.3693 62.1548 78.267C60.2798 79.1648 58.0014 79.6136 55.3196 79.6136C52.8196 79.6136 50.6548 79.2102 48.8253 78.4034C47.0071 77.5966 45.5753 76.4716 44.5298 75.0284C43.4957 73.5852 42.9105 71.9091 42.7741 70H47.1378C47.2514 71.3182 47.6946 72.4091 48.4673 73.2727C49.2514 74.125 50.2401 74.7614 51.4332 75.1818C52.6378 75.5909 53.9332 75.7955 55.3196 75.7955C56.9332 75.7955 58.3821 75.5341 59.6662 75.0114C60.9503 74.4773 61.9673 73.7386 62.7173 72.7955C63.4673 71.8409 63.8423 70.7273 63.8423 69.4545C63.8423 68.2955 63.5185 67.3523 62.8707 66.625C62.223 65.8977 61.3707 65.3068 60.3139 64.8523C59.2571 64.3977 58.1151 64 56.8878 63.6591L52.5923 62.4318C49.8651 61.6477 47.706 60.5284 46.1151 59.0739C44.5241 57.6193 43.7287 55.7159 43.7287 53.3636C43.7287 51.4091 44.2571 49.7045 45.3139 48.25C46.3821 46.7841 47.8139 45.6477 49.6094 44.8409C51.4162 44.0227 53.4332 43.6136 55.6605 43.6136C57.9105 43.6136 59.9105 44.017 61.6605 44.8239C63.4105 45.6193 64.7969 46.7102 65.8196 48.0966C66.8537 49.483 67.3991 51.0568 67.456 52.8182H63.3651ZM76.3153 79H71.8835L84.7017 44.0909H89.0653L101.884 79H97.4517L87.0199 49.6136H86.7472L76.3153 79ZM77.9517 65.3636H95.8153V69.1136H77.9517V65.3636ZM107.321 44.0909H112.366L124.23 73.0682H124.639L136.503 44.0909H141.548V79H137.594V52.4773H137.253L126.344 79H122.526L111.616 52.4773H111.276V79H107.321V44.0909ZM150.024 79V44.0909H161.82C164.558 44.0909 166.797 44.5852 168.536 45.5739C170.286 46.5511 171.581 47.875 172.422 49.5455C173.263 51.2159 173.683 53.0795 173.683 55.1364C173.683 57.1932 173.263 59.0625 172.422 60.7443C171.592 62.4261 170.308 63.767 168.57 64.767C166.831 65.7557 164.604 66.25 161.888 66.25H153.433V62.5H161.751C163.626 62.5 165.132 62.1761 166.268 61.5284C167.405 60.8807 168.229 60.0057 168.74 58.9034C169.263 57.7898 169.524 56.5341 169.524 55.1364C169.524 53.7386 169.263 52.4886 168.74 51.3864C168.229 50.2841 167.399 49.4205 166.251 48.7955C165.104 48.1591 163.581 47.8409 161.683 47.8409H154.251V79H150.024ZM180.493 79V44.0909H184.72V75.25H200.947V79H180.493ZM207.493 79V44.0909H228.561V47.8409H211.72V59.6364H227.47V63.3864H211.72V75.25H228.834V79H207.493ZM69.1733 102.091V137H64.946V102.091H69.1733ZM77.6491 102.091H82.6946L94.5582 131.068H94.9673L106.831 102.091H111.876V137H107.922V110.477H107.581L96.6719 137H92.8537L81.9446 110.477H81.6037V137H77.6491V102.091ZM121.784 137H117.352L130.17 102.091H134.534L147.352 137H142.92L132.489 107.614H132.216L121.784 137ZM123.42 123.364H141.284V127.114H123.42V123.364ZM175.013 113C174.638 111.852 174.143 110.824 173.53 109.915C172.928 108.994 172.206 108.21 171.365 107.562C170.536 106.915 169.592 106.42 168.536 106.08C167.479 105.739 166.32 105.568 165.058 105.568C162.99 105.568 161.109 106.102 159.416 107.17C157.723 108.239 156.376 109.812 155.376 111.892C154.376 113.972 153.876 116.523 153.876 119.545C153.876 122.568 154.382 125.119 155.393 127.199C156.405 129.278 157.774 130.852 159.501 131.92C161.229 132.989 163.172 133.523 165.331 133.523C167.331 133.523 169.092 133.097 170.615 132.244C172.149 131.381 173.342 130.165 174.195 128.597C175.058 127.017 175.49 125.159 175.49 123.023L176.786 123.295H166.286V119.545H179.581V123.295C179.581 126.17 178.967 128.67 177.74 130.795C176.524 132.92 174.842 134.568 172.695 135.739C170.558 136.898 168.104 137.477 165.331 137.477C162.24 137.477 159.524 136.75 157.183 135.295C154.854 133.841 153.036 131.773 151.729 129.091C150.433 126.409 149.786 123.227 149.786 119.545C149.786 116.784 150.155 114.301 150.893 112.097C151.643 109.881 152.7 107.994 154.064 106.438C155.428 104.881 157.041 103.688 158.905 102.858C160.768 102.028 162.82 101.614 165.058 101.614C166.899 101.614 168.615 101.892 170.206 102.449C171.808 102.994 173.234 103.773 174.484 104.784C175.746 105.784 176.797 106.983 177.638 108.381C178.479 109.767 179.058 111.307 179.376 113H175.013ZM186.821 137V102.091H207.889V105.841H191.048V117.636H206.798V121.386H191.048V133.25H208.162V137H186.821ZM60.0481 220V217.699L68.6902 208.239C69.7044 207.131 70.5396 206.168 71.1958 205.349C71.8521 204.523 72.3379 203.747 72.6532 203.023C72.9771 202.29 73.139 201.523 73.139 200.722C73.139 199.801 72.9174 199.004 72.4743 198.331C72.0396 197.658 71.443 197.138 70.6845 196.771C69.926 196.405 69.0737 196.222 68.1277 196.222C67.122 196.222 66.2441 196.43 65.4941 196.848C64.7527 197.257 64.1774 197.832 63.7683 198.574C63.3677 199.315 63.1674 200.185 63.1674 201.182H60.1504C60.1504 199.648 60.5041 198.301 61.2115 197.142C61.9189 195.983 62.8819 195.08 64.1007 194.432C65.3279 193.784 66.7044 193.46 68.2299 193.46C69.764 193.46 71.1234 193.784 72.3081 194.432C73.4927 195.08 74.4217 195.953 75.095 197.053C75.7683 198.152 76.1049 199.375 76.1049 200.722C76.1049 201.685 75.9302 202.626 75.5808 203.547C75.2399 204.459 74.6433 205.477 73.791 206.602C72.9473 207.719 71.7754 209.082 70.2754 210.693L64.3947 216.983V217.188H76.5652V220H60.0481ZM90.3848 220.358C88.4586 220.358 86.818 219.834 85.4629 218.786C84.1078 217.729 83.0723 216.199 82.3564 214.196C81.6404 212.185 81.2825 209.756 81.2825 206.909C81.2825 204.08 81.6404 201.663 82.3564 199.661C83.0808 197.649 84.1206 196.115 85.4757 195.058C86.8393 193.993 88.4757 193.46 90.3848 193.46C92.2939 193.46 93.926 193.993 95.2811 195.058C96.6447 196.115 97.6845 197.649 98.4004 199.661C99.1248 201.663 99.487 204.08 99.487 206.909C99.487 209.756 99.1291 212.185 98.4132 214.196C97.6973 216.199 96.6618 217.729 95.3066 218.786C93.9515 219.834 92.3109 220.358 90.3848 220.358ZM90.3848 217.545C92.2939 217.545 93.7768 216.625 94.8336 214.784C95.8904 212.943 96.4189 210.318 96.4189 206.909C96.4189 204.642 96.176 202.712 95.6902 201.118C95.2129 199.524 94.5226 198.31 93.6191 197.474C92.7243 196.639 91.6461 196.222 90.3848 196.222C88.4927 196.222 87.014 197.155 85.9487 199.021C84.8833 200.879 84.3507 203.509 84.3507 206.909C84.3507 209.176 84.5893 211.102 85.0666 212.688C85.5439 214.273 86.2299 215.479 87.1248 216.305C88.0282 217.132 89.1149 217.545 90.3848 217.545ZM112.885 220.358C110.959 220.358 109.318 219.834 107.963 218.786C106.608 217.729 105.572 216.199 104.856 214.196C104.14 212.185 103.782 209.756 103.782 206.909C103.782 204.08 104.14 201.663 104.856 199.661C105.581 197.649 106.621 196.115 107.976 195.058C109.339 193.993 110.976 193.46 112.885 193.46C114.794 193.46 116.426 193.993 117.781 195.058C119.145 196.115 120.184 197.649 120.9 199.661C121.625 201.663 121.987 204.08 121.987 206.909C121.987 209.756 121.629 212.185 120.913 214.196C120.197 216.199 119.162 217.729 117.807 218.786C116.452 219.834 114.811 220.358 112.885 220.358ZM112.885 217.545C114.794 217.545 116.277 216.625 117.334 214.784C118.39 212.943 118.919 210.318 118.919 206.909C118.919 204.642 118.676 202.712 118.19 201.118C117.713 199.524 117.023 198.31 116.119 197.474C115.224 196.639 114.146 196.222 112.885 196.222C110.993 196.222 109.514 197.155 108.449 199.021C107.383 200.879 106.851 203.509 106.851 206.909C106.851 209.176 107.089 211.102 107.567 212.688C108.044 214.273 108.73 215.479 109.625 216.305C110.528 217.132 111.615 217.545 112.885 217.545ZM142.237 215.295L127.817 200.875L129.76 198.932L144.18 213.352L142.237 215.295ZM129.76 215.295L127.817 213.352L142.237 198.932L144.18 200.875L129.76 215.295ZM150.575 220V217.699L159.218 208.239C160.232 207.131 161.067 206.168 161.723 205.349C162.379 204.523 162.865 203.747 163.181 203.023C163.504 202.29 163.666 201.523 163.666 200.722C163.666 199.801 163.445 199.004 163.002 198.331C162.567 197.658 161.97 197.138 161.212 196.771C160.453 196.405 159.601 196.222 158.655 196.222C157.649 196.222 156.771 196.43 156.021 196.848C155.28 197.257 154.705 197.832 154.296 198.574C153.895 199.315 153.695 200.185 153.695 201.182H150.678C150.678 199.648 151.031 198.301 151.739 197.142C152.446 195.983 153.409 195.08 154.628 194.432C155.855 193.784 157.232 193.46 158.757 193.46C160.291 193.46 161.651 193.784 162.835 194.432C164.02 195.08 164.949 195.953 165.622 197.053C166.296 198.152 166.632 199.375 166.632 200.722C166.632 201.685 166.458 202.626 166.108 203.547C165.767 204.459 165.171 205.477 164.318 206.602C163.475 207.719 162.303 209.082 160.803 210.693L154.922 216.983V217.188H167.093V220H150.575ZM180.912 220.358C178.986 220.358 177.345 219.834 175.99 218.786C174.635 217.729 173.6 216.199 172.884 214.196C172.168 212.185 171.81 209.756 171.81 206.909C171.81 204.08 172.168 201.663 172.884 199.661C173.608 197.649 174.648 196.115 176.003 195.058C177.367 193.993 179.003 193.46 180.912 193.46C182.821 193.46 184.453 193.993 185.808 195.058C187.172 196.115 188.212 197.649 188.928 199.661C189.652 201.663 190.014 204.08 190.014 206.909C190.014 209.756 189.656 212.185 188.941 214.196C188.225 216.199 187.189 217.729 185.834 218.786C184.479 219.834 182.838 220.358 180.912 220.358ZM180.912 217.545C182.821 217.545 184.304 216.625 185.361 214.784C186.418 212.943 186.946 210.318 186.946 206.909C186.946 204.642 186.703 202.712 186.218 201.118C185.74 199.524 185.05 198.31 184.146 197.474C183.252 196.639 182.173 196.222 180.912 196.222C179.02 196.222 177.541 197.155 176.476 199.021C175.411 200.879 174.878 203.509 174.878 206.909C174.878 209.176 175.117 211.102 175.594 212.688C176.071 214.273 176.757 215.479 177.652 216.305C178.556 217.132 179.642 217.545 180.912 217.545ZM203.412 220.358C201.486 220.358 199.845 219.834 198.49 218.786C197.135 217.729 196.1 216.199 195.384 214.196C194.668 212.185 194.31 209.756 194.31 206.909C194.31 204.08 194.668 201.663 195.384 199.661C196.108 197.649 197.148 196.115 198.503 195.058C199.867 193.993 201.503 193.46 203.412 193.46C205.321 193.46 206.953 193.993 208.308 195.058C209.672 196.115 210.712 197.649 211.428 199.661C212.152 201.663 212.514 204.08 212.514 206.909C212.514 209.756 212.156 212.185 211.441 214.196C210.725 216.199 209.689 217.729 208.334 218.786C206.979 219.834 205.338 220.358 203.412 220.358ZM203.412 217.545C205.321 217.545 206.804 216.625 207.861 214.784C208.918 212.943 209.446 210.318 209.446 206.909C209.446 204.642 209.203 202.712 208.718 201.118C208.24 199.524 207.55 198.31 206.646 197.474C205.752 196.639 204.673 196.222 203.412 196.222C201.52 196.222 200.041 197.155 198.976 199.021C197.911 200.879 197.378 203.509 197.378 206.909C197.378 209.176 197.617 211.102 198.094 212.688C198.571 214.273 199.257 215.479 200.152 216.305C201.056 217.132 202.142 217.545 203.412 217.545Z" fill="black"/>
</svg>
